# Rhino

mtllib R-a-MainStairs.mtl
g Scale_Figure
o object_1
usemtl cement01
v 28 2.666666746 10
v 28 2.666666746 -10
v 28 3 10
v 28 3 -10
v 28 3 10
v 28 3 -10
v 29.5 3 10
v 29.5 3 -10
v 29.5 3 10
v 29.5 3 -10
v 29.5 3.333333254 10
v 29.5 3.333333254 -10
v 29.5 3.333333254 10
v 29.5 3.333333254 -10
v 31 3.333333254 10
v 31 3.333333254 -10
v 31 3.333333254 10
v 31 3.333333254 -10
v 31 3.666666746 10
v 31 3.666666746 -10
v 31 3.666666746 10
v 31 3.666666746 -10
v 32.5 3.666666746 10
v 32.5 3.666666746 -10
v 32.5 3.666666746 10
v 32.5 3.666666746 -10
v 32.5 4 10
v 32.5 4 -10
v 32.5 4 10
v 32.5 4 -10
v 34 4 10
v 34 4 -10
v 34 4 10
v 34 4 -10
v 34 4.333333492 10
v 34 4.333333492 -10
v 34 4.333333492 10
v 34 4.333333492 -10
v 35.5 4.333333492 10
v 35.5 4.333333492 -10
v 35.5 4.333333492 10
v 35.5 4.333333492 -10
v 35.5 4.666666508 10
v 35.5 4.666666508 -10
v 35.5 4.666666508 10
v 35.5 4.666666508 -10
v 37 4.666666508 10
v 37 4.666666508 -10
v 37 4.666666508 10
v 37 4.666666508 -10
v 37 5 10
v 37 5 -10
v 37 5 10
v 37 5 -10
v 38.5 5 10
v 38.5 5 -10
v 38.5 5 10
v 38.5 5 -10
v 38.5 5.333333492 10
v 38.5 5.333333492 -10
v 38.5 5.333333492 10
v 38.5 5.333333492 -10
v 40 5.333333492 10
v 40 5.333333492 -10
v 40 5.333333492 10
v 40 5.333333492 -10
v 40 0 10
v 40 5.329070518e-14 -10
v 40 0 10
v 40 5.329070518e-14 -10
v 16 0 10
v 16 5.329070518e-14 -10
v 16 0 10
v 16 5.329070518e-14 -10
v 16 0.3333333433 10
v 16 0.3333333433 -10
v 16 0.3333333433 10
v 16 0.3333333433 -10
v 17.5 0.3333333433 10
v 17.5 0.3333333433 -10
v 17.5 0.3333333433 10
v 17.5 0.3333333433 -10
v 17.5 0.6666666865 10
v 17.5 0.6666666865 -10
v 17.5 0.6666666865 10
v 17.5 0.6666666865 -10
v 19 0.6666666865 10
v 19 0.6666666865 -10
v 19 0.6666666865 10
v 19 0.6666666865 -10
v 19 1 10
v 19 1 -10
v 19 1 10
v 19 1 -10
v 20.5 1 10
v 20.5 1 -10
v 20.5 1 10
v 20.5 1 -10
v 20.5 1.333333373 10
v 20.5 1.333333373 -10
v 20.5 1.333333373 10
v 20.5 1.333333373 -10
v 22 1.333333373 10
v 22 1.333333373 -10
v 22 1.333333373 10
v 22 1.333333373 -10
v 22 1.666666627 10
v 22 1.666666627 -10
v 22 1.666666627 10
v 22 1.666666627 -10
v 23.5 1.666666627 10
v 23.5 1.666666627 -10
v 23.5 1.666666627 10
v 23.5 1.666666627 -10
v 23.5 2 10
v 23.5 2 -10
v 23.5 2 10
v 23.5 2 -10
v 25 2 10
v 25 2 -10
v 25 2 10
v 25 2 -10
v 25 2.333333254 10
v 25 2.333333254 -10
v 25 2.333333254 10
v 25 2.333333254 -10
v 26.5 2.333333254 10
v 26.5 2.333333254 -10
v 26.5 2.333333254 10
v 26.5 2.333333254 -10
v 26.5 2.666666746 10
v 26.5 2.666666746 -10
v 26.5 2.666666746 10
v 26.5 2.666666746 -10
v 28 2.666666746 10
v 28 2.666666746 -10
v 28 2.666666746 10
v 28 3 10
v 29.5 3 10
v 29.5 3.333333254 10
v 31 3.333333254 10
v 31 3.666666746 10
v 32.5 3.666666746 10
v 32.5 4 10
v 34 4 10
v 34 4.333333492 10
v 35.5 4.333333492 10
v 35.5 4.666666508 10
v 37 4.666666508 10
v 37 5 10
v 38.5 5 10
v 38.5 5.333333492 10
v 40 5.333333492 10
v 40 0 10
v 16 0 10
v 16 0.3333333433 10
v 17.5 0.3333333433 10
v 17.5 0.6666666865 10
v 19 0.6666666865 10
v 19 1 10
v 20.5 1 10
v 20.5 1.333333373 10
v 22 1.333333373 10
v 22 1.666666627 10
v 23.5 1.666666627 10
v 23.5 2 10
v 25 2 10
v 25 2.333333254 10
v 26.5 2.333333254 10
v 26.5 2.666666746 10
v 28 2.666666746 -10
v 28 3 -10
v 29.5 3 -10
v 29.5 3.333333254 -10
v 31 3.333333254 -10
v 31 3.666666746 -10
v 32.5 3.666666746 -10
v 32.5 4 -10
v 34 4 -10
v 34 4.333333492 -10
v 35.5 4.333333492 -10
v 35.5 4.666666508 -10
v 37 4.666666508 -10
v 37 5 -10
v 38.5 5 -10
v 38.5 5.333333492 -10
v 40 5.333333492 -10
v 40 5.329070518e-14 -10
v 16 5.329070518e-14 -10
v 16 0.3333333433 -10
v 17.5 0.3333333433 -10
v 17.5 0.6666666865 -10
v 19 0.6666666865 -10
v 19 1 -10
v 20.5 1 -10
v 20.5 1.333333373 -10
v 22 1.333333373 -10
v 22 1.666666627 -10
v 23.5 1.666666627 -10
v 23.5 2 -10
v 25 2 -10
v 25 2.333333254 -10
v 26.5 2.333333254 -10
v 26.5 2.666666746 -10
vt 0 0
vt 0 0.8260862827
vt 0.005681818351 0
vt 0.005681818351 0.8260862827
vt 0.005681818351 0
vt 0.005681818351 0.8260862827
vt 0.03125 0
vt 0.03125 0.8260862827
vt 0.03125 0
vt 0.03125 0.8260862827
vt 0.03693181649 0
vt 0.03693181649 0.8260862827
vt 0.03693181649 0
vt 0.03693181649 0.8260862827
vt 0.0625 0
vt 0.0625 0.8260862827
vt 0.0625 0
vt 0.0625 0.8260862827
vt 0.06818182021 0
vt 0.06818182021 0.8260862827
vt 0.06818182021 0
vt 0.06818182021 0.8260862827
vt 0.09375 0
vt 0.09375 0.8260862827
vt 0.09375 0
vt 0.09375 0.8260862827
vt 0.09943182021 0
vt 0.09943182021 0.8260862827
vt 0.09943182021 0
vt 0.09943182021 0.8260862827
vt 0.125 0
vt 0.125 0.8260862827
vt 0.125 0
vt 0.125 0.8260862827
vt 0.1306818128 0
vt 0.1306818128 0.8260862827
vt 0.1306818128 0
vt 0.1306818128 0.8260862827
vt 0.15625 0
vt 0.15625 0.8260862827
vt 0.15625 0
vt 0.15625 0.8260862827
vt 0.1619318128 0
vt 0.1619318128 0.8260862827
vt 0.1619318128 0
vt 0.1619318128 0.8260862827
vt 0.1875 0
vt 0.1875 0.8260862827
vt 0.1875 0
vt 0.1875 0.8260862827
vt 0.1931818128 0
vt 0.1931818128 0.8260862827
vt 0.1931818128 0
vt 0.1931818128 0.8260862827
vt 0.21875 0
vt 0.21875 0.8260862827
vt 0.21875 0
vt 0.21875 0.8260862827
vt 0.2244318128 0
vt 0.2244318128 0.8260862827
vt 0.2244318128 0
vt 0.2244318128 0.8260862827
vt 0.25 0
vt 0.25 0.8260862827
vt 0.25 0
vt 0.25 0.8260862827
vt 0.3409090936 0
vt 0.3409090936 0.8260862827
vt 0.3409090936 0
vt 0.3409090936 0.8260862827
vt 0.75 0
vt 0.75 0.8260862827
vt 0.75 0
vt 0.75 0.8260862827
vt 0.7556818128 0
vt 0.7556818128 0.8260862827
vt 0.7556818128 0
vt 0.7556818128 0.8260862827
vt 0.78125 0
vt 0.78125 0.8260862827
vt 0.78125 0
vt 0.78125 0.8260862827
vt 0.7869318128 0
vt 0.7869318128 0.8260862827
vt 0.7869318128 0
vt 0.7869318128 0.8260862827
vt 0.8125 0
vt 0.8125 0.8260862827
vt 0.8125 0
vt 0.8125 0.8260862827
vt 0.8181818128 0
vt 0.8181818128 0.8260862827
vt 0.8181818128 0
vt 0.8181818128 0.8260862827
vt 0.84375 0
vt 0.84375 0.8260862827
vt 0.84375 0
vt 0.84375 0.8260862827
vt 0.8494318128 0
vt 0.8494318128 0.8260862827
vt 0.8494318128 0
vt 0.8494318128 0.8260862827
vt 0.875 0
vt 0.875 0.8260862827
vt 0.875 0
vt 0.875 0.8260862827
vt 0.8806818128 0
vt 0.8806818128 0.8260862827
vt 0.8806818128 0
vt 0.8806818128 0.8260862827
vt 0.90625 0
vt 0.90625 0.8260862827
vt 0.90625 0
vt 0.90625 0.8260862827
vt 0.9119318128 0
vt 0.9119318128 0.8260862827
vt 0.9119318128 0
vt 0.9119318128 0.8260862827
vt 0.9375 0
vt 0.9375 0.8260862827
vt 0.9375 0
vt 0.9375 0.8260862827
vt 0.9431818128 0
vt 0.9431818128 0.8260862827
vt 0.9431818128 0
vt 0.9431818128 0.8260862827
vt 0.96875 0
vt 0.96875 0.8260862827
vt 0.96875 0
vt 0.96875 0.8260862827
vt 0.9744318128 0
vt 0.9744318128 0.8260862827
vt 0.9744318128 0
vt 0.9744318128 0.8260862827
vt 1 0
vt 1 0.8260862827
vt 0.2045454532 0.9130435586
vt 0.2045454532 0.9239131212
vt 0.2301136404 0.9239131212
vt 0.2301136404 0.9347826838
vt 0.2556818128 0.9347826838
vt 0.2556818128 0.9456522465
vt 0.28125 0.9456522465
vt 0.28125 0.9565217495
vt 0.3068181872 0.9565217495
vt 0.3068181872 0.9673913121
vt 0.3323863745 0.9673913121
vt 0.3323863745 0.9782608747
vt 0.3579545319 0.9782608747
vt 0.3579545319 0.9891304374
vt 0.3835227191 0.9891304374
vt 0.3835227191 1
vt 0.4090909064 1
vt 0.4090909064 0.8260871172
vt 0 0.8260871172
vt 0 0.8369566798
vt 0.02556818165 0.8369566798
vt 0.02556818165 0.8478262424
vt 0.0511363633 0.8478262424
vt 0.0511363633 0.8586957455
vt 0.07670454681 0.8586957455
vt 0.07670454681 0.8695653081
vt 0.1022727266 0.8695653081
vt 0.1022727266 0.8804348707
vt 0.1278409064 0.8804348707
vt 0.1278409064 0.8913044333
vt 0.1534090936 0.8913044333
vt 0.1534090936 0.902173996
vt 0.178977266 0.902173996
vt 0.178977266 0.9130435586
vt 0.2045454532 0.9130435586
vt 0.2045454532 0.902173996
vt 0.2301136404 0.902173996
vt 0.2301136404 0.8913044333
vt 0.2556818128 0.8913044333
vt 0.2556818128 0.8804348707
vt 0.28125 0.8804348707
vt 0.28125 0.8695653081
vt 0.3068181872 0.8695653081
vt 0.3068181872 0.8586957455
vt 0.3323863745 0.8586957455
vt 0.3323863745 0.8478262424
vt 0.3579545319 0.8478262424
vt 0.3579545319 0.8369566798
vt 0.3835227191 0.8369566798
vt 0.3835227191 0.8260871172
vt 0.4090909064 0.8260871172
vt 0.4090909064 1
vt 0 1
vt 0 0.9891304374
vt 0.02556818165 0.9891304374
vt 0.02556818165 0.9782608747
vt 0.0511363633 0.9782608747
vt 0.0511363633 0.9673913121
vt 0.07670454681 0.9673913121
vt 0.07670454681 0.9565217495
vt 0.1022727266 0.9565217495
vt 0.1022727266 0.9456522465
vt 0.1278409064 0.9456522465
vt 0.1278409064 0.9347826838
vt 0.1534090936 0.9347826838
vt 0.1534090936 0.9239131212
vt 0.178977266 0.9239131212
vt 0.178977266 0.9130435586
vn -1 -1.893266248e-30 7.105427463e-16
vn -1 -1.893266248e-30 7.105427463e-16
vn -1 -1.893266248e-30 7.105427463e-16
vn -1 -1.893266248e-30 7.105427463e-16
vn -2.662467082e-44 1 2.664535259e-15
vn -2.662467082e-44 1 2.664535259e-15
vn -2.662467082e-44 1 2.664535259e-15
vn -2.662467082e-44 1 2.664535259e-15
vn -1 -1.893266248e-30 7.105427463e-16
vn -1 -1.893266248e-30 7.105427463e-16
vn -1 -1.893266248e-30 7.105427463e-16
vn -1 -1.893266248e-30 7.105427463e-16
vn -2.662467082e-44 1 2.664535259e-15
vn -2.662467082e-44 1 2.664535259e-15
vn -2.662467082e-44 1 2.664535259e-15
vn -2.662467082e-44 1 2.664535259e-15
vn -1 -1.893266248e-30 7.105427463e-16
vn -1 -1.893266248e-30 7.105427463e-16
vn -1 -1.893266248e-30 7.105427463e-16
vn -1 -1.893266248e-30 7.105427463e-16
vn -2.662467082e-44 1 2.664535259e-15
vn -2.662467082e-44 1 2.664535259e-15
vn -2.662467082e-44 1 2.664535259e-15
vn -2.662467082e-44 1 2.664535259e-15
vn -1 -1.893266248e-30 7.105427463e-16
vn -1 -1.893266248e-30 7.105427463e-16
vn -1 -1.893266248e-30 7.105427463e-16
vn -1 -1.893266248e-30 7.105427463e-16
vn -2.662467082e-44 1 2.664535259e-15
vn -2.662467082e-44 1 2.664535259e-15
vn -2.662467082e-44 1 2.664535259e-15
vn -2.662467082e-44 1 2.664535259e-15
vn -1 -1.893266248e-30 7.105427463e-16
vn -1 -1.893266248e-30 7.105427463e-16
vn -1 -1.893266248e-30 7.105427463e-16
vn -1 -1.893266248e-30 7.105427463e-16
vn -2.662467082e-44 1 2.664535259e-15
vn -2.662467082e-44 1 2.664535259e-15
vn -2.662467082e-44 1 2.664535259e-15
vn -2.662467082e-44 1 2.664535259e-15
vn -1 -1.893266248e-30 7.105427463e-16
vn -1 -1.893266248e-30 7.105427463e-16
vn -1 -1.893266248e-30 7.105427463e-16
vn -1 -1.893266248e-30 7.105427463e-16
vn -2.662467082e-44 1 2.664535259e-15
vn -2.662467082e-44 1 2.664535259e-15
vn -2.662467082e-44 1 2.664535259e-15
vn -2.662467082e-44 1 2.664535259e-15
vn -1 -1.893266248e-30 7.105427463e-16
vn -1 -1.893266248e-30 7.105427463e-16
vn -1 -1.893266248e-30 7.105427463e-16
vn -1 -1.893266248e-30 7.105427463e-16
vn -2.662467082e-44 1 2.664535259e-15
vn -2.662467082e-44 1 2.664535259e-15
vn -2.662467082e-44 1 2.664535259e-15
vn -2.662467082e-44 1 2.664535259e-15
vn -1 -1.893266248e-30 7.105427463e-16
vn -1 -1.893266248e-30 7.105427463e-16
vn -1 -1.893266248e-30 7.105427463e-16
vn -1 -1.893266248e-30 7.105427463e-16
vn -2.662467082e-44 1 2.664535259e-15
vn -2.662467082e-44 1 2.664535259e-15
vn -2.662467082e-44 1 2.664535259e-15
vn -2.662467082e-44 1 2.664535259e-15
vn 1 1.893266248e-30 -7.105427463e-16
vn 1 1.893266248e-30 -7.105427463e-16
vn 1 1.893266248e-30 -7.105427463e-16
vn 1 1.893266248e-30 -7.105427463e-16
vn 2.662467082e-44 -1 -2.664535259e-15
vn 2.662467082e-44 -1 -2.664535259e-15
vn 2.662467082e-44 -1 -2.664535259e-15
vn 2.662467082e-44 -1 -2.664535259e-15
vn -1 -1.893266248e-30 7.105427463e-16
vn -1 -1.893266248e-30 7.105427463e-16
vn -1 -1.893266248e-30 7.105427463e-16
vn -1 -1.893266248e-30 7.105427463e-16
vn -2.662467082e-44 1 2.664535259e-15
vn -2.662467082e-44 1 2.664535259e-15
vn -2.662467082e-44 1 2.664535259e-15
vn -2.662467082e-44 1 2.664535259e-15
vn -1 -1.893266248e-30 7.105427463e-16
vn -1 -1.893266248e-30 7.105427463e-16
vn -1 -1.893266248e-30 7.105427463e-16
vn -1 -1.893266248e-30 7.105427463e-16
vn -2.662467082e-44 1 2.664535259e-15
vn -2.662467082e-44 1 2.664535259e-15
vn -2.662467082e-44 1 2.664535259e-15
vn -2.662467082e-44 1 2.664535259e-15
vn -1 -1.893266248e-30 7.105427463e-16
vn -1 -1.893266248e-30 7.105427463e-16
vn -1 -1.893266248e-30 7.105427463e-16
vn -1 -1.893266248e-30 7.105427463e-16
vn -2.662467082e-44 1 2.664535259e-15
vn -2.662467082e-44 1 2.664535259e-15
vn -2.662467082e-44 1 2.664535259e-15
vn -2.662467082e-44 1 2.664535259e-15
vn -1 -1.893266248e-30 7.105427463e-16
vn -1 -1.893266248e-30 7.105427463e-16
vn -1 -1.893266248e-30 7.105427463e-16
vn -1 -1.893266248e-30 7.105427463e-16
vn -2.662467082e-44 1 2.664535259e-15
vn -2.662467082e-44 1 2.664535259e-15
vn -2.662467082e-44 1 2.664535259e-15
vn -2.662467082e-44 1 2.664535259e-15
vn -1 -1.893266248e-30 7.105427463e-16
vn -1 -1.893266248e-30 7.105427463e-16
vn -1 -1.893266248e-30 7.105427463e-16
vn -1 -1.893266248e-30 7.105427463e-16
vn -2.662467082e-44 1 2.664535259e-15
vn -2.662467082e-44 1 2.664535259e-15
vn -2.662467082e-44 1 2.664535259e-15
vn -2.662467082e-44 1 2.664535259e-15
vn -1 -1.893266248e-30 7.105427463e-16
vn -1 -1.893266248e-30 7.105427463e-16
vn -1 -1.893266248e-30 7.105427463e-16
vn -1 -1.893266248e-30 7.105427463e-16
vn -2.662467082e-44 1 2.664535259e-15
vn -2.662467082e-44 1 2.664535259e-15
vn -2.662467082e-44 1 2.664535259e-15
vn -2.662467082e-44 1 2.664535259e-15
vn -1 -1.893266248e-30 7.105427463e-16
vn -1 -1.893266248e-30 7.105427463e-16
vn -1 -1.893266248e-30 7.105427463e-16
vn -1 -1.893266248e-30 7.105427463e-16
vn -2.662467082e-44 1 2.664535259e-15
vn -2.662467082e-44 1 2.664535259e-15
vn -2.662467082e-44 1 2.664535259e-15
vn -2.662467082e-44 1 2.664535259e-15
vn -1 -1.893266248e-30 7.105427463e-16
vn -1 -1.893266248e-30 7.105427463e-16
vn -1 -1.893266248e-30 7.105427463e-16
vn -1 -1.893266248e-30 7.105427463e-16
vn -2.662467082e-44 1 2.664535259e-15
vn -2.662467082e-44 1 2.664535259e-15
vn -2.662467082e-44 1 2.664535259e-15
vn -2.662467082e-44 1 2.664535259e-15
vn 7.105427463e-16 -2.664535259e-15 1
vn 7.105427463e-16 -2.664535259e-15 1
vn 7.105427463e-16 -2.664535259e-15 1
vn 7.105427463e-16 -2.664535259e-15 1
vn 7.105427463e-16 -2.664535259e-15 1
vn 7.105427463e-16 -2.664535259e-15 1
vn 7.105427463e-16 -2.664535259e-15 1
vn 7.105427463e-16 -2.664535259e-15 1
vn 7.105427463e-16 -2.664535259e-15 1
vn 7.105427463e-16 -2.664535259e-15 1
vn 7.105427463e-16 -2.664535259e-15 1
vn 7.105427463e-16 -2.664535259e-15 1
vn 7.105427463e-16 -2.664535259e-15 1
vn 7.105427463e-16 -2.664535259e-15 1
vn 7.105427463e-16 -2.664535259e-15 1
vn 7.105427463e-16 -2.664535259e-15 1
vn 7.105427463e-16 -2.664535259e-15 1
vn 7.105427463e-16 -2.664535259e-15 1
vn 7.105427463e-16 -2.664535259e-15 1
vn 7.105427463e-16 -2.664535259e-15 1
vn 7.105427463e-16 -2.664535259e-15 1
vn 7.105427463e-16 -2.664535259e-15 1
vn 7.105427463e-16 -2.664535259e-15 1
vn 7.105427463e-16 -2.664535259e-15 1
vn 7.105427463e-16 -2.664535259e-15 1
vn 7.105427463e-16 -2.664535259e-15 1
vn 7.105427463e-16 -2.664535259e-15 1
vn 7.105427463e-16 -2.664535259e-15 1
vn 7.105427463e-16 -2.664535259e-15 1
vn 7.105427463e-16 -2.664535259e-15 1
vn 7.105427463e-16 -2.664535259e-15 1
vn 7.105427463e-16 -2.664535259e-15 1
vn 7.105427463e-16 -2.664535259e-15 1
vn 7.105427463e-16 -2.664535259e-15 1
vn -7.105427463e-16 2.664535259e-15 -1
vn -7.105427463e-16 2.664535259e-15 -1
vn -7.105427463e-16 2.664535259e-15 -1
vn -7.105427463e-16 2.664535259e-15 -1
vn -7.105427463e-16 2.664535259e-15 -1
vn -7.105427463e-16 2.664535259e-15 -1
vn -7.105427463e-16 2.664535259e-15 -1
vn -7.105427463e-16 2.664535259e-15 -1
vn -7.105427463e-16 2.664535259e-15 -1
vn -7.105427463e-16 2.664535259e-15 -1
vn -7.105427463e-16 2.664535259e-15 -1
vn -7.105427463e-16 2.664535259e-15 -1
vn -7.105427463e-16 2.664535259e-15 -1
vn -7.105427463e-16 2.664535259e-15 -1
vn -7.105427463e-16 2.664535259e-15 -1
vn -7.105427463e-16 2.664535259e-15 -1
vn -7.105427463e-16 2.664535259e-15 -1
vn -7.105427463e-16 2.664535259e-15 -1
vn -7.105427463e-16 2.664535259e-15 -1
vn -7.105427463e-16 2.664535259e-15 -1
vn -7.105427463e-16 2.664535259e-15 -1
vn -7.105427463e-16 2.664535259e-15 -1
vn -7.105427463e-16 2.664535259e-15 -1
vn -7.105427463e-16 2.664535259e-15 -1
vn -7.105427463e-16 2.664535259e-15 -1
vn -7.105427463e-16 2.664535259e-15 -1
vn -7.105427463e-16 2.664535259e-15 -1
vn -7.105427463e-16 2.664535259e-15 -1
vn -7.105427463e-16 2.664535259e-15 -1
vn -7.105427463e-16 2.664535259e-15 -1
vn -7.105427463e-16 2.664535259e-15 -1
vn -7.105427463e-16 2.664535259e-15 -1
vn -7.105427463e-16 2.664535259e-15 -1
vn -7.105427463e-16 2.664535259e-15 -1
f 1/1/1 3/3/3 4/4/4 2/2/2
f 5/5/5 7/7/7 8/8/8 6/6/6
f 9/9/9 11/11/11 12/12/12 10/10/10
f 13/13/13 15/15/15 16/16/16 14/14/14
f 17/17/17 19/19/19 20/20/20 18/18/18
f 21/21/21 23/23/23 24/24/24 22/22/22
f 25/25/25 27/27/27 28/28/28 26/26/26
f 29/29/29 31/31/31 32/32/32 30/30/30
f 33/33/33 35/35/35 36/36/36 34/34/34
f 37/37/37 39/39/39 40/40/40 38/38/38
f 41/41/41 43/43/43 44/44/44 42/42/42
f 45/45/45 47/47/47 48/48/48 46/46/46
f 49/49/49 51/51/51 52/52/52 50/50/50
f 53/53/53 55/55/55 56/56/56 54/54/54
f 57/57/57 59/59/59 60/60/60 58/58/58
f 61/61/61 63/63/63 64/64/64 62/62/62
f 65/65/65 67/67/67 68/68/68 66/66/66
f 69/69/69 71/71/71 72/72/72 70/70/70
f 73/73/73 75/75/75 76/76/76 74/74/74
f 77/77/77 79/79/79 80/80/80 78/78/78
f 81/81/81 83/83/83 84/84/84 82/82/82
f 85/85/85 87/87/87 88/88/88 86/86/86
f 89/89/89 91/91/91 92/92/92 90/90/90
f 93/93/93 95/95/95 96/96/96 94/94/94
f 97/97/97 99/99/99 100/100/100 98/98/98
f 101/101/101 103/103/103 104/104/104 102/102/102
f 105/105/105 107/107/107 108/108/108 106/106/106
f 109/109/109 111/111/111 112/112/112 110/110/110
f 113/113/113 115/115/115 116/116/116 114/114/114
f 117/117/117 119/119/119 120/120/120 118/118/118
f 121/121/121 123/123/123 124/124/124 122/122/122
f 125/125/125 127/127/127 128/128/128 126/126/126
f 129/129/129 131/131/131 132/132/132 130/130/130
f 133/133/133 135/135/135 136/136/136 134/134/134
f 167/167/167 166/166/166 165/165/165
f 163/163/163 165/165/165 164/164/164
f 137/137/137 170/170/170 169/169/169
f 167/167/167 165/165/165 154/154/154
f 169/169/169 168/168/168 167/167/167
f 154/154/154 165/165/165 163/163/163
f 157/157/157 155/155/155 154/154/154
f 156/156/156 155/155/155 157/157/157
f 157/157/157 159/159/159 158/158/158
f 161/161/161 163/163/163 162/162/162
f 159/159/159 161/161/161 160/160/160
f 159/159/159 157/157/157 154/154/154
f 154/154/154 163/163/163 161/161/161
f 161/161/161 159/159/159 154/154/154
f 169/169/169 167/167/167 154/154/154
f 149/149/149 148/148/148 147/147/147
f 145/145/145 147/147/147 146/146/146
f 151/151/151 153/153/153 152/152/152
f 154/154/154 151/151/151 149/149/149
f 151/151/151 150/150/150 149/149/149
f 151/151/151 154/154/154 153/153/153
f 154/154/154 149/149/149 147/147/147
f 141/141/141 140/140/140 139/139/139
f 154/154/154 139/139/139 137/137/137
f 139/139/139 138/138/138 137/137/137
f 143/143/143 145/145/145 144/144/144
f 154/154/154 143/143/143 141/141/141
f 143/143/143 142/142/142 141/141/141
f 145/145/145 143/143/143 154/154/154
f 139/139/139 154/154/154 141/141/141
f 154/154/154 147/147/147 145/145/145
f 169/169/169 154/154/154 137/137/137
f 201/201/201 199/199/199 200/200/200
f 197/197/197 198/198/198 199/199/199
f 171/171/171 203/203/203 204/204/204
f 201/201/201 188/188/188 199/199/199
f 203/203/203 201/201/201 202/202/202
f 188/188/188 197/197/197 199/199/199
f 191/191/191 188/188/188 189/189/189
f 190/190/190 191/191/191 189/189/189
f 191/191/191 192/192/192 193/193/193
f 195/195/195 196/196/196 197/197/197
f 193/193/193 194/194/194 195/195/195
f 193/193/193 188/188/188 191/191/191
f 188/188/188 195/195/195 197/197/197
f 195/195/195 188/188/188 193/193/193
f 203/203/203 188/188/188 201/201/201
f 183/183/183 181/181/181 182/182/182
f 179/179/179 180/180/180 181/181/181
f 185/185/185 186/186/186 187/187/187
f 188/188/188 183/183/183 185/185/185
f 185/185/185 183/183/183 184/184/184
f 185/185/185 187/187/187 188/188/188
f 188/188/188 181/181/181 183/183/183
f 175/175/175 173/173/173 174/174/174
f 188/188/188 171/171/171 173/173/173
f 173/173/173 171/171/171 172/172/172
f 177/177/177 178/178/178 179/179/179
f 188/188/188 175/175/175 177/177/177
f 177/177/177 175/175/175 176/176/176
f 179/179/179 188/188/188 177/177/177
f 173/173/173 175/175/175 188/188/188
f 188/188/188 179/179/179 181/181/181
f 203/203/203 171/171/171 188/188/188
