# Rhino

mtllib Ground.mtl
g 0_GROUND
o object_1
usemtl GRRRR
v -2 0 2
v -2 0.6666666865 2
v 0 0 2
v 0 0.6666666865 2
v 0 0 2
v 0 0.6666666865 2
v 0 0 0
v 0 0.6666666865 0
v 0 0 0
v 0 0.6666666865 0
v -2 0 0
v -2 0.6666666865 0
v -2 0 0
v -2 0.6666666865 0
v -2 0 2
v -2 0.6666666865 2
v -2 0 2
v 0 0 2
v 0 0 0
v -2 0 0
v -2 0.6666666865 2
v 0 0.6666666865 2
v 0 0.6666666865 0
v -2 0.6666666865 0
vt 0 0
vt 0 0.5714282393
vt 0.25 0
vt 0.25 0.5714282393
vt 0.25 0
vt 0.25 0.5714282393
vt 0.5 0
vt 0.5 0.5714282393
vt 0.5 0
vt 0.5 0.5714282393
vt 0.75 0
vt 0.75 0.5714282393
vt 0.75 0
vt 0.75 0.5714282393
vt 1 0
vt 1 0.5714282393
vt 0 1
vt 0.25 1
vt 0.25 0.5714288354
vt 0 0.5714288354
vt 0.75 0.5714288354
vt 1 0.5714288354
vt 1 1
vt 0.75 1
vn 0 0 1
vn 0 0 1
vn 0 0 1
vn 0 0 1
vn 1 0 0
vn 1 0 0
vn 1 0 0
vn 1 0 0
vn 0 0 -1
vn 0 0 -1
vn 0 0 -1
vn 0 0 -1
vn -1 0 0
vn -1 0 0
vn -1 0 0
vn -1 0 0
vn 0 -1 0
vn 0 -1 0
vn 0 -1 0
vn 0 -1 0
vn 0 1 0
vn 0 1 0
vn 0 1 0
vn 0 1 0
f 1/1/1 3/3/3 4/4/4 2/2/2
f 5/5/5 7/7/7 8/8/8 6/6/6
f 9/9/9 11/11/11 12/12/12 10/10/10
f 13/13/13 15/15/15 16/16/16 14/14/14
f 18/18/18 17/17/17 20/20/20
f 20/20/20 19/19/19 18/18/18
f 22/22/22 24/24/24 21/21/21
f 24/24/24 22/22/22 23/23/23
o object_2
usemtl GRRRR
v 0 0 2
v 0 0.6666666865 2
v 2 0 2
v 2 0.6666666865 2
v 2 0 2
v 2 0.6666666865 2
v 2 0 0
v 2 0.6666666865 0
v 2 0 0
v 2 0.6666666865 0
v 0 0 0
v 0 0.6666666865 0
v 0 0 0
v 0 0.6666666865 0
v 0 0 2
v 0 0.6666666865 2
v 0 0 2
v 2 0 2
v 2 0 0
v 0 0 0
v 0 0.6666666865 2
v 2 0.6666666865 2
v 2 0.6666666865 0
v 0 0.6666666865 0
vt 0 0
vt 0 0.5714282393
vt 0.25 0
vt 0.25 0.5714282393
vt 0.25 0
vt 0.25 0.5714282393
vt 0.5 0
vt 0.5 0.5714282393
vt 0.5 0
vt 0.5 0.5714282393
vt 0.75 0
vt 0.75 0.5714282393
vt 0.75 0
vt 0.75 0.5714282393
vt 1 0
vt 1 0.5714282393
vt 0 1
vt 0.25 1
vt 0.25 0.5714288354
vt 0 0.5714288354
vt 0.75 0.5714288354
vt 1 0.5714288354
vt 1 1
vt 0.75 1
vn 0 0 1
vn 0 0 1
vn 0 0 1
vn 0 0 1
vn 1 0 0
vn 1 0 0
vn 1 0 0
vn 1 0 0
vn 0 0 -1
vn 0 0 -1
vn 0 0 -1
vn 0 0 -1
vn -1 0 0
vn -1 0 0
vn -1 0 0
vn -1 0 0
vn 0 -1 0
vn 0 -1 0
vn 0 -1 0
vn 0 -1 0
vn 0 1 0
vn 0 1 0
vn 0 1 0
vn 0 1 0
f 25/25/25 27/27/27 28/28/28 26/26/26
f 29/29/29 31/31/31 32/32/32 30/30/30
f 33/33/33 35/35/35 36/36/36 34/34/34
f 37/37/37 39/39/39 40/40/40 38/38/38
f 42/42/42 41/41/41 44/44/44
f 44/44/44 43/43/43 42/42/42
f 46/46/46 48/48/48 45/45/45
f 48/48/48 46/46/46 47/47/47
o object_3
usemtl GRRRR
v 0 0 0
v 0 0.6666666865 0
v 2 0 0
v 2 0.6666666865 0
v 2 0 0
v 2 0.6666666865 0
v 2 0 -2
v 2 0.6666666865 -2
v 2 0 -2
v 2 0.6666666865 -2
v 0 0 -2
v 0 0.6666666865 -2
v 0 0 -2
v 0 0.6666666865 -2
v 0 0 0
v 0 0.6666666865 0
v 0 0 0
v 2 0 0
v 2 0 -2
v 0 0 -2
v 0 0.6666666865 0
v 2 0.6666666865 0
v 2 0.6666666865 -2
v 0 0.6666666865 -2
vt 0 0
vt 0 0.5714282393
vt 0.25 0
vt 0.25 0.5714282393
vt 0.25 0
vt 0.25 0.5714282393
vt 0.5 0
vt 0.5 0.5714282393
vt 0.5 0
vt 0.5 0.5714282393
vt 0.75 0
vt 0.75 0.5714282393
vt 0.75 0
vt 0.75 0.5714282393
vt 1 0
vt 1 0.5714282393
vt 0 1
vt 0.25 1
vt 0.25 0.5714288354
vt 0 0.5714288354
vt 0.75 0.5714288354
vt 1 0.5714288354
vt 1 1
vt 0.75 1
vn 0 0 1
vn 0 0 1
vn 0 0 1
vn 0 0 1
vn 1 0 0
vn 1 0 0
vn 1 0 0
vn 1 0 0
vn 0 0 -1
vn 0 0 -1
vn 0 0 -1
vn 0 0 -1
vn -1 0 0
vn -1 0 0
vn -1 0 0
vn -1 0 0
vn 0 -1 0
vn 0 -1 0
vn 0 -1 0
vn 0 -1 0
vn 0 1 0
vn 0 1 0
vn 0 1 0
vn 0 1 0
f 49/49/49 51/51/51 52/52/52 50/50/50
f 53/53/53 55/55/55 56/56/56 54/54/54
f 57/57/57 59/59/59 60/60/60 58/58/58
f 61/61/61 63/63/63 64/64/64 62/62/62
f 66/66/66 65/65/65 68/68/68
f 68/68/68 67/67/67 66/66/66
f 70/70/70 72/72/72 69/69/69
f 72/72/72 70/70/70 71/71/71
o object_4
usemtl GRRRR
v -2 0 0
v -2 0.6666666865 0
v 0 0 0
v 0 0.6666666865 0
v 0 0 0
v 0 0.6666666865 0
v 0 0 -2
v 0 0.6666666865 -2
v 0 0 -2
v 0 0.6666666865 -2
v -2 0 -2
v -2 0.6666666865 -2
v -2 0 -2
v -2 0.6666666865 -2
v -2 0 0
v -2 0.6666666865 0
v -2 0 0
v 0 0 0
v 0 0 -2
v -2 0 -2
v -2 0.6666666865 0
v 0 0.6666666865 0
v 0 0.6666666865 -2
v -2 0.6666666865 -2
vt 0 0
vt 0 0.5714282393
vt 0.25 0
vt 0.25 0.5714282393
vt 0.25 0
vt 0.25 0.5714282393
vt 0.5 0
vt 0.5 0.5714282393
vt 0.5 0
vt 0.5 0.5714282393
vt 0.75 0
vt 0.75 0.5714282393
vt 0.75 0
vt 0.75 0.5714282393
vt 1 0
vt 1 0.5714282393
vt 0 1
vt 0.25 1
vt 0.25 0.5714288354
vt 0 0.5714288354
vt 0.75 0.5714288354
vt 1 0.5714288354
vt 1 1
vt 0.75 1
vn 0 0 1
vn 0 0 1
vn 0 0 1
vn 0 0 1
vn 1 0 0
vn 1 0 0
vn 1 0 0
vn 1 0 0
vn 0 0 -1
vn 0 0 -1
vn 0 0 -1
vn 0 0 -1
vn -1 0 0
vn -1 0 0
vn -1 0 0
vn -1 0 0
vn 0 -1 0
vn 0 -1 0
vn 0 -1 0
vn 0 -1 0
vn 0 1 0
vn 0 1 0
vn 0 1 0
vn 0 1 0
f 73/73/73 75/75/75 76/76/76 74/74/74
f 77/77/77 79/79/79 80/80/80 78/78/78
f 81/81/81 83/83/83 84/84/84 82/82/82
f 85/85/85 87/87/87 88/88/88 86/86/86
f 90/90/90 89/89/89 92/92/92
f 92/92/92 91/91/91 90/90/90
f 94/94/94 96/96/96 93/93/93
f 96/96/96 94/94/94 95/95/95
o object_5
usemtl GRRRR
v -4 0 -2
v -4 0.3333333433 -2
v -2 0 -2
v -2 0.3333333433 -2
v -2 0 -2
v -2 0.3333333433 -2
v -2 0 -4
v -2 0.3333333433 -4
v -2 0 -4
v -2 0.3333333433 -4
v -4 0 -4
v -4 0.3333333433 -4
v -4 0 -4
v -4 0.3333333433 -4
v -4 0 -2
v -4 0.3333333433 -2
v -4 0 -2
v -2 0 -2
v -2 0 -4
v -4 0 -4
v -4 0.3333333433 -2
v -2 0.3333333433 -2
v -2 0.3333333433 -4
v -4 0.3333333433 -4
vt 0 0
vt 0 0.5384612679
vt 0.25 0
vt 0.25 0.5384612679
vt 0.25 0
vt 0.25 0.5384612679
vt 0.5 0
vt 0.5 0.5384612679
vt 0.5 0
vt 0.5 0.5384612679
vt 0.75 0
vt 0.75 0.5384612679
vt 0.75 0
vt 0.75 0.5384612679
vt 1 0
vt 1 0.5384612679
vt 0 1
vt 0.25 1
vt 0.25 0.5384618044
vt 0 0.5384618044
vt 0.75 0.5384618044
vt 1 0.5384618044
vt 1 1
vt 0.75 1
vn 0 0 1
vn 0 0 1
vn 0 0 1
vn 0 0 1
vn 1 0 0
vn 1 0 0
vn 1 0 0
vn 1 0 0
vn 0 0 -1
vn 0 0 -1
vn 0 0 -1
vn 0 0 -1
vn -1 0 0
vn -1 0 0
vn -1 0 0
vn -1 0 0
vn 0 -1 0
vn 0 -1 0
vn 0 -1 0
vn 0 -1 0
vn 0 1 0
vn 0 1 0
vn 0 1 0
vn 0 1 0
f 97/97/97 99/99/99 100/100/100 98/98/98
f 101/101/101 103/103/103 104/104/104 102/102/102
f 105/105/105 107/107/107 108/108/108 106/106/106
f 109/109/109 111/111/111 112/112/112 110/110/110
f 114/114/114 113/113/113 116/116/116
f 116/116/116 115/115/115 114/114/114
f 118/118/118 120/120/120 117/117/117
f 120/120/120 118/118/118 119/119/119
o object_6
usemtl GRRRR
v -4 0 2
v -4 0.3333333433 2
v -2 0 2
v -2 0.3333333433 2
v -2 0 2
v -2 0.3333333433 2
v -2 0 0
v -2 0.3333333433 0
v -2 0 0
v -2 0.3333333433 0
v -4 0 0
v -4 0.3333333433 0
v -4 0 0
v -4 0.3333333433 0
v -4 0 2
v -4 0.3333333433 2
v -4 0 2
v -2 0 2
v -2 0 0
v -4 0 0
v -4 0.3333333433 2
v -2 0.3333333433 2
v -2 0.3333333433 0
v -4 0.3333333433 0
vt 0 0
vt 0 0.5384612679
vt 0.25 0
vt 0.25 0.5384612679
vt 0.25 0
vt 0.25 0.5384612679
vt 0.5 0
vt 0.5 0.5384612679
vt 0.5 0
vt 0.5 0.5384612679
vt 0.75 0
vt 0.75 0.5384612679
vt 0.75 0
vt 0.75 0.5384612679
vt 1 0
vt 1 0.5384612679
vt 0 1
vt 0.25 1
vt 0.25 0.5384618044
vt 0 0.5384618044
vt 0.75 0.5384618044
vt 1 0.5384618044
vt 1 1
vt 0.75 1
vn 0 0 1
vn 0 0 1
vn 0 0 1
vn 0 0 1
vn 1 0 0
vn 1 0 0
vn 1 0 0
vn 1 0 0
vn 0 0 -1
vn 0 0 -1
vn 0 0 -1
vn 0 0 -1
vn -1 0 0
vn -1 0 0
vn -1 0 0
vn -1 0 0
vn 0 -1 0
vn 0 -1 0
vn 0 -1 0
vn 0 -1 0
vn 0 1 0
vn 0 1 0
vn 0 1 0
vn 0 1 0
f 121/121/121 123/123/123 124/124/124 122/122/122
f 125/125/125 127/127/127 128/128/128 126/126/126
f 129/129/129 131/131/131 132/132/132 130/130/130
f 133/133/133 135/135/135 136/136/136 134/134/134
f 138/138/138 137/137/137 140/140/140
f 140/140/140 139/139/139 138/138/138
f 142/142/142 144/144/144 141/141/141
f 144/144/144 142/142/142 143/143/143
o object_7
usemtl GRRRR
v -4 0 0
v -4 0.3333333433 0
v -2 0 0
v -2 0.3333333433 0
v -2 0 0
v -2 0.3333333433 0
v -2 0 -2
v -2 0.3333333433 -2
v -2 0 -2
v -2 0.3333333433 -2
v -4 0 -2
v -4 0.3333333433 -2
v -4 0 -2
v -4 0.3333333433 -2
v -4 0 0
v -4 0.3333333433 0
v -4 0 0
v -2 0 0
v -2 0 -2
v -4 0 -2
v -4 0.3333333433 0
v -2 0.3333333433 0
v -2 0.3333333433 -2
v -4 0.3333333433 -2
vt 0 0
vt 0 0.5384612679
vt 0.25 0
vt 0.25 0.5384612679
vt 0.25 0
vt 0.25 0.5384612679
vt 0.5 0
vt 0.5 0.5384612679
vt 0.5 0
vt 0.5 0.5384612679
vt 0.75 0
vt 0.75 0.5384612679
vt 0.75 0
vt 0.75 0.5384612679
vt 1 0
vt 1 0.5384612679
vt 0 1
vt 0.25 1
vt 0.25 0.5384618044
vt 0 0.5384618044
vt 0.75 0.5384618044
vt 1 0.5384618044
vt 1 1
vt 0.75 1
vn 0 0 1
vn 0 0 1
vn 0 0 1
vn 0 0 1
vn 1 0 0
vn 1 0 0
vn 1 0 0
vn 1 0 0
vn 0 0 -1
vn 0 0 -1
vn 0 0 -1
vn 0 0 -1
vn -1 0 0
vn -1 0 0
vn -1 0 0
vn -1 0 0
vn 0 -1 0
vn 0 -1 0
vn 0 -1 0
vn 0 -1 0
vn 0 1 0
vn 0 1 0
vn 0 1 0
vn 0 1 0
f 145/145/145 147/147/147 148/148/148 146/146/146
f 149/149/149 151/151/151 152/152/152 150/150/150
f 153/153/153 155/155/155 156/156/156 154/154/154
f 157/157/157 159/159/159 160/160/160 158/158/158
f 162/162/162 161/161/161 164/164/164
f 164/164/164 163/163/163 162/162/162
f 166/166/166 168/168/168 165/165/165
f 168/168/168 166/166/166 167/167/167
o object_8
usemtl GRRRR
v -2 0 -2
v -2 0.3333333433 -2
v 0 0 -2
v 0 0.3333333433 -2
v 0 0 -2
v 0 0.3333333433 -2
v 0 0 -4
v 0 0.3333333433 -4
v 0 0 -4
v 0 0.3333333433 -4
v -2 0 -4
v -2 0.3333333433 -4
v -2 0 -4
v -2 0.3333333433 -4
v -2 0 -2
v -2 0.3333333433 -2
v -2 0 -2
v 0 0 -2
v 0 0 -4
v -2 0 -4
v -2 0.3333333433 -2
v 0 0.3333333433 -2
v 0 0.3333333433 -4
v -2 0.3333333433 -4
vt 0 0
vt 0 0.5384612679
vt 0.25 0
vt 0.25 0.5384612679
vt 0.25 0
vt 0.25 0.5384612679
vt 0.5 0
vt 0.5 0.5384612679
vt 0.5 0
vt 0.5 0.5384612679
vt 0.75 0
vt 0.75 0.5384612679
vt 0.75 0
vt 0.75 0.5384612679
vt 1 0
vt 1 0.5384612679
vt 0 1
vt 0.25 1
vt 0.25 0.5384618044
vt 0 0.5384618044
vt 0.75 0.5384618044
vt 1 0.5384618044
vt 1 1
vt 0.75 1
vn 0 0 1
vn 0 0 1
vn 0 0 1
vn 0 0 1
vn 1 0 0
vn 1 0 0
vn 1 0 0
vn 1 0 0
vn 0 0 -1
vn 0 0 -1
vn 0 0 -1
vn 0 0 -1
vn -1 0 0
vn -1 0 0
vn -1 0 0
vn -1 0 0
vn 0 -1 0
vn 0 -1 0
vn 0 -1 0
vn 0 -1 0
vn 0 1 0
vn 0 1 0
vn 0 1 0
vn 0 1 0
f 169/169/169 171/171/171 172/172/172 170/170/170
f 173/173/173 175/175/175 176/176/176 174/174/174
f 177/177/177 179/179/179 180/180/180 178/178/178
f 181/181/181 183/183/183 184/184/184 182/182/182
f 186/186/186 185/185/185 188/188/188
f 188/188/188 187/187/187 186/186/186
f 190/190/190 192/192/192 189/189/189
f 192/192/192 190/190/190 191/191/191
o object_9
usemtl GRRRR
v 0 0 -2
v 0 0.3333333433 -2
v 2 0 -2
v 2 0.3333333433 -2
v 2 0 -2
v 2 0.3333333433 -2
v 2 0 -4
v 2 0.3333333433 -4
v 2 0 -4
v 2 0.3333333433 -4
v 0 0 -4
v 0 0.3333333433 -4
v 0 0 -4
v 0 0.3333333433 -4
v 0 0 -2
v 0 0.3333333433 -2
v 0 0 -2
v 2 0 -2
v 2 0 -4
v 0 0 -4
v 0 0.3333333433 -2
v 2 0.3333333433 -2
v 2 0.3333333433 -4
v 0 0.3333333433 -4
vt 0 0
vt 0 0.5384612679
vt 0.25 0
vt 0.25 0.5384612679
vt 0.25 0
vt 0.25 0.5384612679
vt 0.5 0
vt 0.5 0.5384612679
vt 0.5 0
vt 0.5 0.5384612679
vt 0.75 0
vt 0.75 0.5384612679
vt 0.75 0
vt 0.75 0.5384612679
vt 1 0
vt 1 0.5384612679
vt 0 1
vt 0.25 1
vt 0.25 0.5384618044
vt 0 0.5384618044
vt 0.75 0.5384618044
vt 1 0.5384618044
vt 1 1
vt 0.75 1
vn 0 0 1
vn 0 0 1
vn 0 0 1
vn 0 0 1
vn 1 0 0
vn 1 0 0
vn 1 0 0
vn 1 0 0
vn 0 0 -1
vn 0 0 -1
vn 0 0 -1
vn 0 0 -1
vn -1 0 0
vn -1 0 0
vn -1 0 0
vn -1 0 0
vn 0 -1 0
vn 0 -1 0
vn 0 -1 0
vn 0 -1 0
vn 0 1 0
vn 0 1 0
vn 0 1 0
vn 0 1 0
f 193/193/193 195/195/195 196/196/196 194/194/194
f 197/197/197 199/199/199 200/200/200 198/198/198
f 201/201/201 203/203/203 204/204/204 202/202/202
f 205/205/205 207/207/207 208/208/208 206/206/206
f 210/210/210 209/209/209 212/212/212
f 212/212/212 211/211/211 210/210/210
f 214/214/214 216/216/216 213/213/213
f 216/216/216 214/214/214 215/215/215
o object_10
usemtl GRRRR
v 40 0 -130
v 40 5 -130
v 40 0 80
v 40 5 80
v 40 0 -25
v 40 5 -25
v 40 5 80
v 40 5 -130
v 115 5 80
v 115 5 -130
v 115 5 -25
v 40 5 -25
v -200 -1 -130
v -200 0 -130
v -200 -1 80
v -200 0 80
v -200 -1 -25
v -200 0 -25
v -200 -1 80
v -200 -1 -130
v 115 -1 80
v 115 -1 -130
v -42.5 -1 80
v 115 -1 -25
v -42.5 -1 -130
v -200 -1 -25
v -200 0 80
v -200 0 -130
v 40 0 80
v 40 0 -130
v 40 0 -25
v -80 0 80
v -200 0 -25
v -80 0 -130
v -200 -1 80
v 115 -1 80
v 115 5 80
v 40 5 80
v 40 0 80
v -42.5 -1 80
v -80 0 80
v -200 0 80
v 115 0 80
v 115 -1 80
v 115 5 80
v 115 -1 -130
v 115 5 -130
v 115 5 -25
v 115 -1 -25
v 115 0 80
v 115 0 -130
v 115 -1 -130
v 115 5 -130
v -200 -1 -130
v 40 0 -130
v 40 5 -130
v -42.5 -1 -130
v -200 0 -130
v -80 0 -130
v 115 0 -130
vt 0.9711378813 0
vt 0.9611872435 0
vt 0.9711378813 0.4794520438
vt 0.9611872435 0.4794520438
vt 0.9711378813 0.2397260219
vt 0.9611872435 0.2397260219
vt 0.4794520438 0.01369863003
vt 0 0.01369863003
vt 0.4794520438 0.183466658
vt 0 0.183466658
vt 0.2397260219 0.183466658
vt 0.2397260219 0.01369863003
vt 0.9611872435 0
vt 0.9589040875 0
vt 0.9611872435 0.4794520438
vt 0.9589040875 0.4794520438
vt 0.9611872435 0.2397260219
vt 0.9589040875 0.2397260219
vt 0.9574392438 0.1849315017
vt 0.4794520438 0.1849315017
vt 0.9574392438 0.9026447535
vt 0.4794520438 0.9026447535
vt 0.9574392438 0.5437881351
vt 0.7184456587 0.9026447535
vt 0.4794520438 0.5437881351
vt 0.7184456587 0.1849315017
vt 0.4779872 0.1849315017
vt 0 0.1849315017
vt 0.4779872 0.732876718
vt 0 0.732876718
vt 0.2389936 0.732876718
vt 0.4779872 0.4589041173
vt 0.2389936 0.1849315017
vt 0 0.4589041173
vt 0 0
vt 0.7191780806 0
vt 0.7191780806 0.01223378628
vt 0.5479452014 0.01223378628
vt 0.5479452014 0.002038964536
vt 0.3595890403 0
vt 0.2739726007 0.002038964536
vt 0 0.002038964536
vt 0.7191780806 0.002038964536
vt 0.9848365188 0
vt 0.972602725 0
vt 0.9848365188 0.4794520438
vt 0.972602725 0.4794520438
vt 0.972602725 0.2397260219
vt 0.9848365188 0.2397260219
vt 0.9827975631 0
vt 0.9827975631 0.4794520438
vt 0.9985351562 0
vt 0.9863013625 0
vt 0.9985351562 0.7191780806
vt 0.9964962006 0.1712328792
vt 0.9863013625 0.1712328792
vt 0.9985351562 0.3595890403
vt 0.9964962006 0.7191780806
vt 0.9964962006 0.4452055097
vt 0.9964962006 0
vn -1 0 0
vn -1 0 0
vn -1 0 0
vn -1 0 0
vn -1 0 0
vn -1 0 0
vn 0 1 0
vn 0 1 0
vn 0 1 0
vn 0 1 0
vn 0 1 0
vn 0 1 0
vn -1 0 0
vn -1 0 0
vn -1 0 0
vn -1 0 0
vn -1 0 0
vn -1 0 0
vn 0 -1 0
vn 0 -1 0
vn 0 -1 0
vn 0 -1 0
vn 0 -1 0
vn 0 -1 0
vn 0 -1 0
vn 0 -1 0
vn 0 1 0
vn 0 1 0
vn 0 1 0
vn 0 1 0
vn 0 1 0
vn 0 1 0
vn 0 1 0
vn 0 1 0
vn 0 0 1
vn 0 0 1
vn 0 0 1
vn 0 0 1
vn 0 0 1
vn 0 0 1
vn 0 0 1
vn 0 0 1
vn 0 0 1
vn 1 0 0
vn 1 0 0
vn 1 0 0
vn 1 0 0
vn 1 0 0
vn 1 0 0
vn 1 0 0
vn 1 0 0
vn 0 0 -1
vn 0 0 -1
vn 0 0 -1
vn 0 0 -1
vn 0 0 -1
vn 0 0 -1
vn 0 0 -1
vn 0 0 -1
vn 0 0 -1
f 218/218/218 217/217/217 221/221/221 222/222/222
f 219/219/219 220/220/220 222/222/222 221/221/221
f 228/228/228 223/223/223 225/225/225 227/227/227
f 224/224/224 228/228/228 227/227/227 226/226/226
f 230/230/230 229/229/229 233/233/233 234/234/234
f 231/231/231 232/232/232 234/234/234 233/233/233
f 242/242/242 239/239/239 235/235/235
f 242/242/242 236/236/236 241/241/241
f 241/241/241 239/239/239 242/242/242
f 241/241/241 240/240/240 237/237/237 239/239/239
f 240/240/240 241/241/241 238/238/238
f 249/249/249 243/243/243 248/248/248
f 249/249/249 250/250/250 244/244/244
f 250/250/250 249/249/249 248/248/248
f 250/250/250 248/248/248 245/245/245 247/247/247
f 247/247/247 246/246/246 250/250/250
f 251/251/251 256/256/256 257/257/257 258/258/258
f 257/257/257 256/256/256 255/255/255
f 259/259/259 255/255/255 252/252/252
f 256/256/256 252/252/252 255/255/255
f 259/259/259 253/253/253 254/254/254 255/255/255
f 265/265/265 264/264/264 266/266/266
f 266/266/266 264/264/264 261/261/261
f 265/265/265 266/266/266 260/260/260
f 267/267/267 265/265/265 262/262/262
f 267/267/267 263/263/263 264/264/264
f 265/265/265 267/267/267 264/264/264
f 271/271/271 276/276/276 268/268/268
f 271/271/271 272/272/272 269/269/269 276/276/276
f 268/268/268 273/273/273 275/275/275 271/271/271
f 273/273/273 270/270/270 274/274/274 275/275/275
